# xmcd CD database file
#
# Track frame offsets:
#	150
#	24203
#	39998
#	55966
#	73379
#	94083
#	114644
#	132552
#	149895
#	164962
#	183005
#
# Disc length: 2638 seconds
#
# Revision: 0
# Processed by: cddbd v1.5.2PL0 Copyright (c) Steve Scherf et al.
# Submitted via: CDex 1.70beta2
#
DISCID=a80a4c0b
DTITLE=Gloria - Geister
DYEAR=2015
DGENRE=Blues
TTITLE0=Heilige und Hunde
TTITLE1=Geister
TTITLE2=Das, was passiert
TTITLE3=Das Seil
TTITLE4=Stolpersteine
TTITLE5=Schwaches Gift
TTITLE6=Neu beginnen
TTITLE7=Kreis
TTITLE8=Der Piulot
TTITLE9=Haut
TTITLE10=Ohne Träume
EXTD=YEAR: 2015
EXTT0=
EXTT1=
EXTT2=
EXTT3=
EXTT4=
EXTT5=
EXTT6=
EXTT7=
EXTT8=
EXTT9=
EXTT10=
PLAYORDER=
